<svg xmlns="http://www.w3.org/2000/svg" viewBox="0 0 32 32" width="32" height="32">
  <defs>
    <radialGradient id="fb" cx="42%" cy="32%" r="55%">
      <stop offset="0%" stop-color="#E8F4FF"/>
      <stop offset="35%" stop-color="#B8D8F8"/>
      <stop offset="65%" stop-color="#6BA3D6"/>
      <stop offset="100%" stop-color="#1A5276"/>
    </radialGradient>
    <radialGradient id="fh" cx="35%" cy="25%" r="28%">
      <stop offset="0%" stop-color="white" stop-opacity="0.9"/>
      <stop offset="100%" stop-color="white" stop-opacity="0"/>
    </radialGradient>
    <clipPath id="fc">
      <path d="M16,2 Q16,2 10.5,12 C7,18 7,22 16,28 C25,22 25,18 21.5,12 Q16,2 16,2 Z"/>
    </clipPath>
  </defs>

  <!-- Droplet -->
  <path d="M16,2 Q16,2 10.5,12 C7,18 7,22 16,28 C25,22 25,18 21.5,12 Q16,2 16,2 Z"
        fill="url(#fb)"/>
  <path d="M16,2 Q16,2 10.5,12 C7,18 7,22 16,28 C25,22 25,18 21.5,12 Q16,2 16,2 Z"
        fill="none" stroke="white" stroke-width="0.5" opacity="0.3"/>

  <!-- Simplified car silhouette inside -->
  <g clip-path="url(#fc)" opacity="0.5">
    <g transform="translate(16, 19) scale(0.28)">
      <path d="M-26,0 L-24,-2 L-18,-3 L-12,-3 L-8,-10 L-2,-12 L8,-12 L16,-10 L20,-4 L24,-3 L26,-2 L26,0 Z"
            fill="#0A2540" opacity="0.8"/>
      <circle cx="-16" cy="0" r="4" fill="#0A2540" opacity="0.6"/>
      <circle cx="18" cy="0" r="4" fill="#0A2540" opacity="0.6"/>
    </g>
  </g>

  <!-- Highlight -->
  <ellipse cx="13" cy="9" rx="4" ry="5" fill="url(#fh)" transform="rotate(-12, 13, 9)"/>
  <ellipse cx="12" cy="7.5" rx="1.5" ry="2" fill="white" opacity="0.65" transform="rotate(-12, 12, 7.5)"/>
</svg>