<svg xmlns="http://www.w3.org/2000/svg" viewBox="0 0 100 100" width="100" height="100">
  <defs>
    <linearGradient id="accentGrad" x1="0%" y1="0%" x2="100%" y2="100%">
      <stop offset="0%" stop-color="#60A5FA"/>
      <stop offset="30%" stop-color="#3B82F6"/>
      <stop offset="60%" stop-color="#2563EB"/>
      <stop offset="100%" stop-color="#CBD5E1"/>
    </linearGradient>
    <linearGradient id="shineGrad" x1="0%" y1="0%" x2="100%" y2="100%">
      <stop offset="0%" stop-color="#60A5FA" stop-opacity="0.9"/>
      <stop offset="50%" stop-color="#3B82F6" stop-opacity="0.6"/>
      <stop offset="100%" stop-color="#2563EB" stop-opacity="0.3"/>
    </linearGradient>
    <filter id="glow" x="-20%" y="-20%" width="140%" height="140%">
      <feGaussianBlur stdDeviation="1.5" result="blur"/>
      <feMerge><feMergeNode in="blur"/><feMergeNode in="SourceGraphic"/></feMerge>
    </filter>
  </defs>
  <g transform="translate(50, 55)" filter="url(#glow)">
    <path d="M0,-42 C12,-42 24,-30 24,-14 C24,4 14,22 0,36 C-14,22 -24,4 -24,-14 C-24,-30 -12,-42 0,-42 Z" fill="none" stroke="url(#accentGrad)" stroke-width="2.5"/>
    <path d="M-10,-24 C-5,-31 5,-31 10,-24" fill="none" stroke="url(#shineGrad)" stroke-width="1.4" stroke-linecap="round"/>
    <line x1="18" y1="-36" x2="18" y2="-46" stroke="#60A5FA" stroke-width="1.4" stroke-linecap="round"/>
    <line x1="13" y1="-41" x2="23" y2="-41" stroke="#60A5FA" stroke-width="1.4" stroke-linecap="round"/>
    <path d="M0,-22 C7,-22 12,-16 12,-6 C12,6 7,16 0,22 C-7,16 -12,6 -12,-6 C-12,-16 -7,-22 0,-22 Z" fill="url(#accentGrad)" opacity="0.12"/>
  </g>
</svg>
